<?xml version="1.0" encoding="UTF-8"?>
<svg width="170px" height="68px" viewBox="0 0 170 68" version="1.1" xmlns="http://www.w3.org/2000/svg" xmlns:xlink="http://www.w3.org/1999/xlink">
    <!-- Generator: Sketch 48.2 (47327) - http://www.bohemiancoding.com/sketch -->
    <title>Group 5 Copy 4</title>
    <desc>Created with Sketch.</desc>
    <defs></defs>
    <g id="Symbols" stroke="none" stroke-width="1" fill="none" fill-rule="evenodd">
        <g id="Group-5-Copy-4">
            <path d="M162,13 L168,13 C169.104569,13 170,13.8954305 170,15 L170,66 C170,67.1045695 169.104569,68 168,68 L2,68 C0.8954305,68 1.3527075e-16,67.1045695 0,66 L0,15 C-1.3527075e-16,13.8954305 0.8954305,13 2,13 L8,13 L8,3 C8,1.34314575 9.34314575,3.04359188e-16 11,0 L33,0 C34.6568542,-3.04359188e-16 36,1.34314575 36,3 L36,13 L50,13 L50,3 C50,1.34314575 51.3431458,3.04359188e-16 53,0 L75,0 C76.6568542,-3.04359188e-16 78,1.34314575 78,3 L78,13 L92,13 L92,3 C92,1.34314575 93.3431458,3.04359188e-16 95,0 L117,0 C118.656854,-3.04359188e-16 120,1.34314575 120,3 L120,13 L134,13 L134,3 C134,1.34314575 135.343146,3.04359188e-16 137,0 L159,0 C160.656854,-3.04359188e-16 162,1.34314575 162,3 L162,13 Z" id="Combined-Shape" fill="#F5F5F5"></path>
            <path d="M78,13 L84,13 C85.1045695,13 86,13.8954305 86,15 L86,66 C86,67.1045695 85.1045695,68 84,68 L2,68 C0.8954305,68 1.3527075e-16,67.1045695 0,66 L0,15 C-1.3527075e-16,13.8954305 0.8954305,13 2,13 L8,13 L8,3 C8,1.34314575 9.34314575,3.04359188e-16 11,0 L33,0 C34.6568542,-3.04359188e-16 36,1.34314575 36,3 L36,13 L50,13 L50,3 C50,1.34314575 51.3431458,3.04359188e-16 53,0 L75,0 C76.6568542,-3.04359188e-16 78,1.34314575 78,3 L78,13 Z" id="Combined-Shape-Copy-4" fill="#000000"></path>
            <path d="M162,13 L168,13 C169.104569,13 170,13.8954305 170,15 L170,66 C170,67.1045695 169.104569,68 168,68 L86,68 C84.8954305,68 84,67.1045695 84,66 L84,15 C84,13.8954305 84.8954305,13 86,13 L92,13 L92,3 C92,1.34314575 93.3431458,3.04359188e-16 95,0 L117,0 C118.656854,-3.04359188e-16 120,1.34314575 120,3 L120,13 L134,13 L134,3 C134,1.34314575 135.343146,3.04359188e-16 137,0 L159,0 C160.656854,-3.04359188e-16 162,1.34314575 162,3 L162,13 Z" id="Combined-Shape-Copy-5" fill="#000000"></path>
            <path d="M40.8,35.888 C40.2559973,35.1999966 39.6080038,34.652002 38.856,34.244 C38.1039962,33.835998 37.3600037,33.632 36.624,33.632 C35.7759958,33.632 35.0040035,33.8439979 34.308,34.268 C33.6119965,34.6920021 33.064002,35.2759963 32.664,36.02 C32.263998,36.7640037 32.064,37.5919954 32.064,38.504 C32.064,39.4160046 32.263998,40.2439963 32.664,40.988 C33.064002,41.7320037 33.6119965,42.3159979 34.308,42.74 C35.0040035,43.1640021 35.7759958,43.376 36.624,43.376 C37.3120034,43.376 38.0319962,43.2000018 38.784,42.848 C39.5360038,42.4959982 40.207997,42.016003 40.8,41.408 L43.368,44.168 C42.4559954,45.1280048 41.3720063,45.8919972 40.116,46.46 C38.8599937,47.0280028 37.6160062,47.312 36.384,47.312 C34.7199917,47.312 33.2160067,46.9280038 31.872,46.16 C30.5279933,45.3919962 29.4720038,44.3440066 28.704,43.016 C27.9359962,41.6879934 27.552,40.2000082 27.552,38.552 C27.552,36.9199918 27.9439961,35.4480066 28.728,34.136 C29.5120039,32.8239934 30.5879932,31.7920038 31.956,31.04 C33.3240068,30.2879962 34.8559915,29.912 36.552,29.912 C37.8000062,29.912 39.0319939,30.1719974 40.248,30.692 C41.4640061,31.2120026 42.4959958,31.9199955 43.344,32.816 L40.8,35.888 Z M50.952,33.848 C52.744009,33.848 54.135995,34.2599959 55.128,35.084 C56.120005,35.9080041 56.6239999,37.0639926 56.64,38.552 L56.64,47 L52.44,47 L52.44,45.536 C51.5759957,46.6400055 50.2720087,47.192 48.528,47.192 C47.1519931,47.192 46.068004,46.8200037 45.276,46.076 C44.483996,45.3319963 44.088,44.3520061 44.088,43.136 C44.088,41.9039938 44.5159957,40.9440034 45.372,40.256 C46.2280043,39.5679966 47.455992,39.2160001 49.056,39.2 L52.44,39.2 L52.44,39.056 C52.44,38.4319969 52.2280021,37.9520017 51.804,37.616 C51.3799979,37.2799983 50.768004,37.112 49.968,37.112 C49.4239973,37.112 48.8120034,37.1999991 48.132,37.376 C47.4519966,37.5520009 46.7680034,37.8079983 46.08,38.144 L44.904,35.264 C45.9600053,34.7839976 46.9719952,34.4280012 47.94,34.196 C48.9080048,33.9639988 49.9119948,33.848 50.952,33.848 Z M49.848,44.288 C50.4880032,44.288 51.0479976,44.1320016 51.528,43.82 C52.0080024,43.5079984 52.3119994,43.1040025 52.44,42.608 L52.44,41.48 L49.896,41.48 C48.695994,41.48 48.096,41.9279955 48.096,42.824 C48.096,43.2720022 48.2519984,43.6279987 48.564,43.892 C48.8760016,44.1560013 49.3039973,44.288 49.848,44.288 Z M59.64,29.192 L63.912,29.192 L63.912,47 L59.64,47 L59.64,29.192 Z M75.672,38.744 C75.063997,37.8479955 74.2160054,37.4 73.128,37.4 C72.3599962,37.4 71.7360024,37.6919971 71.256,38.276 C70.7759976,38.8600029 70.536,39.6159954 70.536,40.544 C70.536,41.4880047 70.7759976,42.2479971 71.256,42.824 C71.7360024,43.4000029 72.3599962,43.688 73.128,43.688 C74.3120059,43.688 75.1599974,43.2000049 75.672,42.224 L78.816,44.024 C78.3039974,45.016005 77.5360051,45.7839973 76.512,46.328 C75.4879949,46.8720027 74.2880069,47.144 72.912,47.144 C71.5839934,47.144 70.416005,46.8720027 69.408,46.328 C68.399995,45.7839973 67.6200028,45.016005 67.068,44.024 C66.5159972,43.031995 66.24,41.8800066 66.24,40.568 C66.24,39.2399934 66.5199972,38.0680051 67.08,37.052 C67.6400028,36.0359949 68.4279949,35.2520028 69.444,34.7 C70.4600051,34.1479972 71.6319934,33.872 72.96,33.872 C74.2560065,33.872 75.407995,34.1399973 76.416,34.676 C77.424005,35.2120027 78.2079972,35.9679951 78.768,36.944 L75.672,38.744 Z M93.456,34.016 L93.456,47 L89.184,47 L89.184,44.888 C88.3039956,46.3920075 86.9200094,47.1599998 85.032,47.192 C83.623993,47.192 82.5000042,46.7400045 81.66,45.836 C80.8199958,44.9319955 80.4,43.7280075 80.4,42.224 L80.4,34.016 L84.672,34.016 L84.672,41 C84.672,41.7360037 84.8599981,42.3119979 85.236,42.728 C85.6120019,43.1440021 86.1199968,43.352 86.76,43.352 C87.5120038,43.3359999 88.1039978,43.0600027 88.536,42.524 C88.9680022,41.9879973 89.184,41.2880043 89.184,40.424 L89.184,34.016 L93.456,34.016 Z M96.84,29.192 L101.112,29.192 L101.112,47 L96.84,47 L96.84,29.192 Z M110.352,33.848 C112.144009,33.848 113.535995,34.2599959 114.528,35.084 C115.520005,35.9080041 116.024,37.0639926 116.04,38.552 L116.04,47 L111.84,47 L111.84,45.536 C110.975996,46.6400055 109.672009,47.192 107.928,47.192 C106.551993,47.192 105.468004,46.8200037 104.676,46.076 C103.883996,45.3319963 103.488,44.3520061 103.488,43.136 C103.488,41.9039938 103.915996,40.9440034 104.772,40.256 C105.628004,39.5679966 106.855992,39.2160001 108.456,39.2 L111.84,39.2 L111.84,39.056 C111.84,38.4319969 111.628002,37.9520017 111.204,37.616 C110.779998,37.2799983 110.168004,37.112 109.368,37.112 C108.823997,37.112 108.212003,37.1999991 107.532,37.376 C106.851997,37.5520009 106.168003,37.8079983 105.48,38.144 L104.304,35.264 C105.360005,34.7839976 106.371995,34.4280012 107.34,34.196 C108.308005,33.9639988 109.311995,33.848 110.352,33.848 Z M109.248,44.288 C109.888003,44.288 110.447998,44.1320016 110.928,43.82 C111.408002,43.5079984 111.711999,43.1040025 111.84,42.608 L111.84,41.48 L109.296,41.48 C108.095994,41.48 107.496,41.9279955 107.496,42.824 C107.496,43.2720022 107.651998,43.6279987 107.964,43.892 C108.276002,44.1560013 108.703997,44.288 109.248,44.288 Z M127.368,46.328 C126.887998,46.6000014 126.336003,46.8119992 125.712,46.964 C125.087997,47.1160008 124.456003,47.192 123.816,47.192 C122.535994,47.192 121.500004,46.8240037 120.708,46.088 C119.915996,45.3519963 119.52,44.3360065 119.52,43.04 L119.52,37.472 L117.72,37.472 L117.72,34.64 L119.52,34.64 L119.52,31.04 L123.768,31.04 L123.768,34.64 L127.128,34.64 L127.128,37.472 L123.768,37.472 L123.768,42.368 C123.768,43.2800046 124.143996,43.736 124.896,43.736 C125.360002,43.736 125.911997,43.5920014 126.552,43.304 L127.368,46.328 Z M135.048,33.872 C137.160011,33.872 138.783994,34.4959938 139.92,35.744 C141.056006,36.9920062 141.624,38.7039891 141.624,40.88 C141.624,41.2160017 141.616,41.4719991 141.6,41.648 L132.576,41.648 C132.784001,42.3840037 133.143997,42.947998 133.656,43.34 C134.168003,43.732002 134.791996,43.928 135.528,43.928 C136.088003,43.928 136.627997,43.8160011 137.148,43.592 C137.668003,43.3679989 138.143998,43.0400022 138.576,42.608 L140.808,44.84 C140.135997,45.5920038 139.324005,46.163998 138.372,46.556 C137.419995,46.948002 136.344006,47.144 135.144,47.144 C133.751993,47.144 132.536005,46.8720027 131.496,46.328 C130.455995,45.7839973 129.660003,45.016005 129.108,44.024 C128.555997,43.031995 128.28,41.8800066 128.28,40.568 C128.28,39.2399934 128.559997,38.0680051 129.12,37.052 C129.680003,36.0359949 130.471995,35.2520028 131.496,34.7 C132.520005,34.1479972 133.703993,33.872 135.048,33.872 Z M137.472,39.368 C137.472,38.6159962 137.252002,38.0120023 136.812,37.556 C136.371998,37.0999977 135.792004,36.872 135.072,36.872 C134.399997,36.872 133.836002,37.0959978 133.38,37.544 C132.923998,37.9920022 132.624001,38.5999962 132.48,39.368 L137.472,39.368 Z" id="Calculate" fill="#FFFFFF"></path>
        </g>
    </g>
</svg>