<?xml version="1.0" encoding="UTF-8"?>
<svg width="170px" height="68px" viewBox="0 0 170 68" version="1.1" xmlns="http://www.w3.org/2000/svg" xmlns:xlink="http://www.w3.org/1999/xlink">
    <!-- Generator: Sketch 48.2 (47327) - http://www.bohemiancoding.com/sketch -->
    <title>Button/Start/Hover</title>
    <desc>Created with Sketch.</desc>
    <defs></defs>
    <g id="Symbols" stroke="none" stroke-width="1" fill="none" fill-rule="evenodd">
        <g id="Button/Start/Hover">
            <g id="Group-5-Copy-2">
                <path d="M162,13 L168,13 C169.104569,13 170,13.8954305 170,15 L170,66 C170,67.1045695 169.104569,68 168,68 L2,68 C0.8954305,68 1.3527075e-16,67.1045695 0,66 L0,15 C-1.3527075e-16,13.8954305 0.8954305,13 2,13 L8,13 L8,3 C8,1.34314575 9.34314575,3.04359188e-16 11,0 L33,0 C34.6568542,-3.04359188e-16 36,1.34314575 36,3 L36,13 L50,13 L50,3 C50,1.34314575 51.3431458,3.04359188e-16 53,0 L75,0 C76.6568542,-3.04359188e-16 78,1.34314575 78,3 L78,13 L92,13 L92,3 C92,1.34314575 93.3431458,3.04359188e-16 95,0 L117,0 C118.656854,-3.04359188e-16 120,1.34314575 120,3 L120,13 L134,13 L134,3 C134,1.34314575 135.343146,3.04359188e-16 137,0 L159,0 C160.656854,-3.04359188e-16 162,1.34314575 162,3 L162,13 Z" id="Combined-Shape" fill="#000000"></path>
                <path d="M34.632,30.176 L39.024,30.176 L39.024,43.256 L46.152,43.256 L46.152,47 L34.632,47 L34.632,30.176 Z M53.856,33.872 C55.9680106,33.872 57.5919943,34.4959938 58.728,35.744 C59.8640057,36.9920062 60.432,38.7039891 60.432,40.88 C60.432,41.2160017 60.4240001,41.4719991 60.408,41.648 L51.384,41.648 C51.592001,42.3840037 51.9519974,42.947998 52.464,43.34 C52.9760026,43.732002 53.5999963,43.928 54.336,43.928 C54.8960028,43.928 55.4359974,43.8160011 55.956,43.592 C56.4760026,43.3679989 56.9519978,43.0400022 57.384,42.608 L59.616,44.84 C58.9439966,45.5920038 58.1320048,46.163998 57.18,46.556 C56.2279952,46.948002 55.152006,47.144 53.952,47.144 C52.559993,47.144 51.3440052,46.8720027 50.304,46.328 C49.2639948,45.7839973 48.4680028,45.016005 47.916,44.024 C47.3639972,43.031995 47.088,41.8800066 47.088,40.568 C47.088,39.2399934 47.3679972,38.0680051 47.928,37.052 C48.4880028,36.0359949 49.2799949,35.2520028 50.304,34.7 C51.3280051,34.1479972 52.5119933,33.872 53.856,33.872 Z M56.28,39.368 C56.28,38.6159962 56.0600022,38.0120023 55.62,37.556 C55.1799978,37.0999977 54.6000036,36.872 53.88,36.872 C53.2079966,36.872 52.6440023,37.0959978 52.188,37.544 C51.7319977,37.9920022 51.4320007,38.5999962 51.288,39.368 L56.28,39.368 Z M71.064,46.328 C70.5839976,46.6000014 70.0320031,46.8119992 69.408,46.964 C68.7839969,47.1160008 68.1520032,47.192 67.512,47.192 C66.2319936,47.192 65.196004,46.8240037 64.404,46.088 C63.611996,45.3519963 63.216,44.3360065 63.216,43.04 L63.216,37.472 L61.416,37.472 L61.416,34.64 L63.216,34.64 L63.216,31.04 L67.464,31.04 L67.464,34.64 L70.824,34.64 L70.824,37.472 L67.464,37.472 L67.464,42.368 C67.464,43.2800046 67.8399962,43.736 68.592,43.736 C69.0560023,43.736 69.6079968,43.5920014 70.248,43.304 L71.064,46.328 Z M74.424,29.192 C75.0000029,29.192 75.483998,29.3719982 75.876,29.732 C76.268002,30.0920018 76.464,30.5919968 76.464,31.232 C76.464,31.7120024 76.2800018,32.255997 75.912,32.864 L73.992,36.056 L71.952,36.056 L73.2,32.864 C72.6559973,32.4799981 72.384,31.9360035 72.384,31.232 C72.384,30.639997 72.5759981,30.1520019 72.96,29.768 C73.3440019,29.3839981 73.831997,29.192 74.424,29.192 Z M87.6,38.12 C85.9199916,37.2399956 84.5440054,36.8 83.472,36.8 C83.1039982,36.8 82.8080011,36.8679993 82.584,37.004 C82.3599989,37.1400007 82.248,37.3439986 82.248,37.616 C82.248,37.9040014 82.4239982,38.1359991 82.776,38.312 C83.1280018,38.4880009 83.6879962,38.679999 84.456,38.888 C85.3840046,39.1600014 86.1559969,39.4279987 86.772,39.692 C87.3880031,39.9560013 87.9199978,40.3559973 88.368,40.892 C88.8160022,41.4280027 89.04,42.1279957 89.04,42.992 C89.04,44.3040066 88.5320051,45.3319963 87.516,46.076 C86.4999949,46.8200037 85.1760082,47.192 83.544,47.192 C82.4399945,47.192 81.384005,47.0360016 80.376,46.724 C79.367995,46.4119984 78.4720039,45.952003 77.688,45.344 L79.032,42.584 C79.7680037,43.0960026 80.539996,43.4919986 81.348,43.772 C82.156004,44.0520014 82.9199964,44.192 83.64,44.192 C84.0560021,44.192 84.3879988,44.1240007 84.636,43.988 C84.8840012,43.8519993 85.008,43.6560013 85.008,43.4 C85.008,43.0799984 84.8280018,42.8320009 84.468,42.656 C84.1079982,42.4799991 83.5440038,42.288001 82.776,42.08 C81.8639954,41.8079986 81.112003,41.5400013 80.52,41.276 C79.927997,41.0119987 79.4120022,40.6160026 78.972,40.088 C78.5319978,39.5599974 78.312,38.8720042 78.312,38.024 C78.312,36.7119934 78.807995,35.6840037 79.8,34.94 C80.792005,34.1959963 82.0719922,33.824 83.64,33.824 C84.5840047,33.824 85.5159954,33.9519987 86.436,34.208 C87.3560046,34.4640013 88.2239959,34.8399975 89.04,35.336 L87.6,38.12 Z M107.808,38.408 L111.6,38.408 L111.6,45.104 C110.703996,45.7600033 109.604007,46.291998 108.3,46.7 C106.995993,47.108002 105.760006,47.312 104.592,47.312 C102.895992,47.312 101.364007,46.9320038 99.996,46.172 C98.6279932,45.4119962 97.5520039,44.3680066 96.768,43.04 C95.9839961,41.7119934 95.592,40.2240082 95.592,38.576 C95.592,36.9439918 95.995996,35.4680066 96.804,34.148 C97.612004,32.8279934 98.7239929,31.7920038 100.14,31.04 C101.556007,30.2879962 103.135991,29.912 104.88,29.912 C106.128006,29.912 107.375994,30.1399977 108.624,30.596 C109.872006,31.0520023 110.927996,31.6639962 111.792,32.432 L109.296,35.504 C108.687997,34.9279971 107.988004,34.4720017 107.196,34.136 C106.403996,33.7999983 105.624004,33.632 104.856,33.632 C103.959996,33.632 103.152004,33.8479978 102.432,34.28 C101.711996,34.7120022 101.144002,35.3039962 100.728,36.056 C100.311998,36.8080038 100.104,37.6479954 100.104,38.576 C100.104,39.5200047 100.311998,40.3719962 100.728,41.132 C101.144002,41.8920038 101.719996,42.4879978 102.456,42.92 C103.192004,43.3520022 104.007996,43.568 104.904,43.568 C105.752004,43.568 106.719995,43.2960027 107.808,42.752 L107.808,38.408 Z M120.528,33.872 C121.936007,33.872 123.175995,34.1479972 124.248,34.7 C125.320005,35.2520028 126.151997,36.027995 126.744,37.028 C127.336003,38.028005 127.632,39.1839934 127.632,40.496 C127.632,41.8240066 127.336003,42.987995 126.744,43.988 C126.151997,44.988005 125.320005,45.7639972 124.248,46.316 C123.175995,46.8680028 121.936007,47.144 120.528,47.144 C119.119993,47.144 117.880005,46.8680028 116.808,46.316 C115.735995,45.7639972 114.908003,44.988005 114.324,43.988 C113.739997,42.987995 113.448,41.8240066 113.448,40.496 C113.448,39.1839934 113.739997,38.028005 114.324,37.028 C114.908003,36.027995 115.735995,35.2520028 116.808,34.7 C117.880005,34.1479972 119.119993,33.872 120.528,33.872 Z M120.528,37.328 C119.695996,37.328 119.024003,37.623997 118.512,38.216 C117.999997,38.808003 117.744,39.5839952 117.744,40.544 C117.744,41.5200049 117.999997,42.303997 118.512,42.896 C119.024003,43.488003 119.695996,43.784 120.528,43.784 C121.376004,43.784 122.055997,43.488003 122.568,42.896 C123.080003,42.303997 123.336,41.5200049 123.336,40.544 C123.336,39.5839952 123.076003,38.808003 122.556,38.216 C122.035997,37.623997 121.360004,37.328 120.528,37.328 Z M129.408,30.272 L133.464,30.272 L133.464,34.568 L132.72,41.168 L130.152,41.168 L129.408,34.568 L129.408,30.272 Z M131.352,43.04 C131.960003,43.04 132.455998,43.2319981 132.84,43.616 C133.224002,44.0000019 133.416,44.495997 133.416,45.104 C133.416,45.712003 133.224002,46.211998 132.84,46.604 C132.455998,46.996002 131.960003,47.192 131.352,47.192 C130.759997,47.192 130.272002,46.996002 129.888,46.604 C129.503998,46.211998 129.312,45.712003 129.312,45.104 C129.312,44.495997 129.499998,44.0000019 129.876,43.616 C130.252002,43.2319981 130.743997,43.04 131.352,43.04 Z" id="Let’s-Go!" fill="#FFFFFF"></path>
            </g>
        </g>
    </g>
</svg>