<?xml version="1.0" encoding="UTF-8"?>
<svg width="300px" height="68px" viewBox="0 0 300 68" version="1.1" xmlns="http://www.w3.org/2000/svg" xmlns:xlink="http://www.w3.org/1999/xlink">
    <!-- Generator: Sketch 48.2 (47327) - http://www.bohemiancoding.com/sketch -->
    <title>Button/ViewCharacters/Hover</title>
    <desc>Created with Sketch.</desc>
    <defs></defs>
    <g id="Page-1" stroke="none" stroke-width="1" fill="none" fill-rule="evenodd">
        <g id="Button/ViewCharacters/Hover">
            <g id="Group-8-Copy-2">
                <g id="Group-7" fill="#000000">
                    <path d="M206,13 L212,13 C213.104569,13 214,13.8954305 214,15 L214,66 C214,67.1045695 213.104569,68 212,68 L46,68 C44.8954305,68 44,67.1045695 44,66 L44,15 C44,13.8954305 44.8954305,13 46,13 L52,13 L52,3 C52,1.34314575 53.3431458,3.04359188e-16 55,0 L77,0 C78.6568542,-3.04359188e-16 80,1.34314575 80,3 L80,13 L94,13 L94,3 C94,1.34314575 95.3431458,3.04359188e-16 97,0 L119,0 C120.656854,-3.04359188e-16 122,1.34314575 122,3 L122,13 L136,13 L136,3 C136,1.34314575 137.343146,3.04359188e-16 139,0 L161,0 C162.656854,-3.04359188e-16 164,1.34314575 164,3 L164,13 L178,13 L178,3 C178,1.34314575 179.343146,3.04359188e-16 181,0 L203,0 C204.656854,-3.04359188e-16 206,1.34314575 206,3 L206,13 Z" id="Combined-Shape-Copy"></path>
                    <path d="M292,13 L298,13 C299.104569,13 300,13.8954305 300,15 L300,66 C300,67.1045695 299.104569,68 298,68 L216,68 C214.895431,68 214,67.1045695 214,66 L214,15 C214,13.8954305 214.895431,13 216,13 L222,13 L222,3 C222,1.34314575 223.343146,3.04359188e-16 225,0 L247,0 C248.656854,-3.04359188e-16 250,1.34314575 250,3 L250,13 L264,13 L264,3 C264,1.34314575 265.343146,3.04359188e-16 267,0 L289,0 C290.656854,-3.04359188e-16 292,1.34314575 292,3 L292,13 Z" id="Combined-Shape-Copy-2"></path>
                    <path d="M8,13 L8,3 C8,1.34314575 9.34314575,3.04359188e-16 11,0 L33,0 C34.6568542,-3.04359188e-16 36,1.34314575 36,3 L36,13 L42,13 C43.1045695,13 44,13.8954305 44,15 L44,66 C44,67.1045695 43.1045695,68 42,68 L2,68 C0.8954305,68 1.3527075e-16,67.1045695 0,66 L0,15 C-1.3527075e-16,13.8954305 0.8954305,13 2,13 L8,13 Z" id="Combined-Shape-Copy-3"></path>
                </g>
                <path d="M29.952,30.176 L34.68,30.176 L38.88,42.344 L43.104,30.176 L47.616,30.176 L41.04,47 L36.48,47 L29.952,30.176 Z M49.2,34.016 L53.448,34.016 L53.448,47 L49.2,47 L49.2,34.016 Z M51.288,28.04 C51.9440033,28.04 52.4839979,28.2519979 52.908,28.676 C53.3320021,29.1000021 53.544,29.6479966 53.544,30.32 C53.544,30.9760033 53.3320021,31.5199978 52.908,31.952 C52.4839979,32.3840022 51.9440033,32.6 51.288,32.6 C50.6319967,32.6 50.0920021,32.3840022 49.668,31.952 C49.2439979,31.5199978 49.032,30.9760033 49.032,30.32 C49.032,29.6479966 49.2439979,29.1000021 49.668,28.676 C50.0920021,28.2519979 50.6319967,28.04 51.288,28.04 Z M62.424,33.872 C64.5360106,33.872 66.1599943,34.4959938 67.296,35.744 C68.4320057,36.9920062 69,38.7039891 69,40.88 C69,41.2160017 68.9920001,41.4719991 68.976,41.648 L59.952,41.648 C60.160001,42.3840037 60.5199974,42.947998 61.032,43.34 C61.5440026,43.732002 62.1679963,43.928 62.904,43.928 C63.4640028,43.928 64.0039974,43.8160011 64.524,43.592 C65.0440026,43.3679989 65.5199978,43.0400022 65.952,42.608 L68.184,44.84 C67.5119966,45.5920038 66.7000048,46.163998 65.748,46.556 C64.7959952,46.948002 63.720006,47.144 62.52,47.144 C61.127993,47.144 59.9120052,46.8720027 58.872,46.328 C57.8319948,45.7839973 57.0360028,45.016005 56.484,44.024 C55.9319972,43.031995 55.656,41.8800066 55.656,40.568 C55.656,39.2399934 55.9359972,38.0680051 56.496,37.052 C57.0560028,36.0359949 57.8479949,35.2520028 58.872,34.7 C59.8960051,34.1479972 61.0799933,33.872 62.424,33.872 Z M64.848,39.368 C64.848,38.6159962 64.6280022,38.0120023 64.188,37.556 C63.7479978,37.0999977 63.1680036,36.872 62.448,36.872 C61.7759966,36.872 61.2120023,37.0959978 60.756,37.544 C60.2999977,37.9920022 60.0000007,38.5999962 59.856,39.368 L64.848,39.368 Z M69.024,34.016 L73.368,34.016 L75.96,42.8 L78.504,34.016 L82.584,34.016 L85.152,42.8 L87.744,34.016 L91.92,34.016 L87.168,47 L82.944,47 L80.472,38.984 L77.976,47 L73.752,47 L69.024,34.016 Z M111.048,47 L109.896,44.024 L102.624,44.024 L101.448,47 L96.936,47 L104.16,30.176 L108.672,30.176 L115.728,47 L111.048,47 Z M103.944,40.664 L108.6,40.664 L106.296,34.664 L103.944,40.664 Z M117.36,29.192 L121.632,29.192 L121.632,47 L117.36,47 L117.36,29.192 Z M125.136,29.192 L129.408,29.192 L129.408,47 L125.136,47 L125.136,29.192 Z M150.288,35.888 C149.743997,35.1999966 149.096004,34.652002 148.344,34.244 C147.591996,33.835998 146.848004,33.632 146.112,33.632 C145.263996,33.632 144.492003,33.8439979 143.796,34.268 C143.099997,34.6920021 142.552002,35.2759963 142.152,36.02 C141.751998,36.7640037 141.552,37.5919954 141.552,38.504 C141.552,39.4160046 141.751998,40.2439963 142.152,40.988 C142.552002,41.7320037 143.099997,42.3159979 143.796,42.74 C144.492003,43.1640021 145.263996,43.376 146.112,43.376 C146.800003,43.376 147.519996,43.2000018 148.272,42.848 C149.024004,42.4959982 149.695997,42.016003 150.288,41.408 L152.856,44.168 C151.943995,45.1280048 150.860006,45.8919972 149.604,46.46 C148.347994,47.0280028 147.104006,47.312 145.872,47.312 C144.207992,47.312 142.704007,46.9280038 141.36,46.16 C140.015993,45.3919962 138.960004,44.3440066 138.192,43.016 C137.423996,41.6879934 137.04,40.2000082 137.04,38.552 C137.04,36.9199918 137.431996,35.4480066 138.216,34.136 C139.000004,32.8239934 140.075993,31.7920038 141.444,31.04 C142.812007,30.2879962 144.343992,29.912 146.04,29.912 C147.288006,29.912 148.519994,30.1719974 149.736,30.692 C150.952006,31.2120026 151.983996,31.9199955 152.832,32.816 L150.288,35.888 Z M163.416,33.848 C164.856007,33.848 166.003996,34.2959955 166.86,35.192 C167.716004,36.0880045 168.144,37.2959924 168.144,38.816 L168.144,47 L163.872,47 L163.872,40.04 C163.872,39.3039963 163.676002,38.7240021 163.284,38.3 C162.891998,37.8759979 162.352003,37.664 161.664,37.664 C160.879996,37.6800001 160.260002,37.9559973 159.804,38.492 C159.347998,39.0280027 159.12,39.7279957 159.12,40.592 L159.12,47 L154.848,47 L154.848,29.192 L159.12,29.192 L159.12,36.128 C159.584002,35.3759962 160.179996,34.8080019 160.908,34.424 C161.636004,34.0399981 162.471995,33.848 163.416,33.848 Z M176.88,33.848 C178.672009,33.848 180.063995,34.2599959 181.056,35.084 C182.048005,35.9080041 182.552,37.0639926 182.568,38.552 L182.568,47 L178.368,47 L178.368,45.536 C177.503996,46.6400055 176.200009,47.192 174.456,47.192 C173.079993,47.192 171.996004,46.8200037 171.204,46.076 C170.411996,45.3319963 170.016,44.3520061 170.016,43.136 C170.016,41.9039938 170.443996,40.9440034 171.3,40.256 C172.156004,39.5679966 173.383992,39.2160001 174.984,39.2 L178.368,39.2 L178.368,39.056 C178.368,38.4319969 178.156002,37.9520017 177.732,37.616 C177.307998,37.2799983 176.696004,37.112 175.896,37.112 C175.351997,37.112 174.740003,37.1999991 174.06,37.376 C173.379997,37.5520009 172.696003,37.8079983 172.008,38.144 L170.832,35.264 C171.888005,34.7839976 172.899995,34.4280012 173.868,34.196 C174.836005,33.9639988 175.839995,33.848 176.88,33.848 Z M175.776,44.288 C176.416003,44.288 176.975998,44.1320016 177.456,43.82 C177.936002,43.5079984 178.239999,43.1040025 178.368,42.608 L178.368,41.48 L175.824,41.48 C174.623994,41.48 174.024,41.9279955 174.024,42.824 C174.024,43.2720022 174.179998,43.6279987 174.492,43.892 C174.804002,44.1560013 175.231997,44.288 175.776,44.288 Z M189.72,36.176 C190.168002,35.4239962 190.747996,34.848002 191.46,34.448 C192.172004,34.047998 192.983995,33.848 193.896,33.848 L193.896,37.76 C193.751999,37.7439999 193.536001,37.736 193.248,37.736 C192.239995,37.736 191.424003,37.9719976 190.8,38.444 C190.175997,38.9160024 189.816,39.5599959 189.72,40.376 L189.72,47 L185.448,47 L185.448,34.016 L189.72,34.016 L189.72,36.176 Z M201.264,33.848 C203.056009,33.848 204.447995,34.2599959 205.44,35.084 C206.432005,35.9080041 206.936,37.0639926 206.952,38.552 L206.952,47 L202.752,47 L202.752,45.536 C201.887996,46.6400055 200.584009,47.192 198.84,47.192 C197.463993,47.192 196.380004,46.8200037 195.588,46.076 C194.795996,45.3319963 194.4,44.3520061 194.4,43.136 C194.4,41.9039938 194.827996,40.9440034 195.684,40.256 C196.540004,39.5679966 197.767992,39.2160001 199.368,39.2 L202.752,39.2 L202.752,39.056 C202.752,38.4319969 202.540002,37.9520017 202.116,37.616 C201.691998,37.2799983 201.080004,37.112 200.28,37.112 C199.735997,37.112 199.124003,37.1999991 198.444,37.376 C197.763997,37.5520009 197.080003,37.8079983 196.392,38.144 L195.216,35.264 C196.272005,34.7839976 197.283995,34.4280012 198.252,34.196 C199.220005,33.9639988 200.223995,33.848 201.264,33.848 Z M200.16,44.288 C200.800003,44.288 201.359998,44.1320016 201.84,43.82 C202.320002,43.5079984 202.623999,43.1040025 202.752,42.608 L202.752,41.48 L200.208,41.48 C199.007994,41.48 198.408,41.9279955 198.408,42.824 C198.408,43.2720022 198.563998,43.6279987 198.876,43.892 C199.188002,44.1560013 199.615997,44.288 200.16,44.288 Z M218.208,38.744 C217.599997,37.8479955 216.752005,37.4 215.664,37.4 C214.895996,37.4 214.272002,37.6919971 213.792,38.276 C213.311998,38.8600029 213.072,39.6159954 213.072,40.544 C213.072,41.4880047 213.311998,42.2479971 213.792,42.824 C214.272002,43.4000029 214.895996,43.688 215.664,43.688 C216.848006,43.688 217.695997,43.2000049 218.208,42.224 L221.352,44.024 C220.839997,45.016005 220.072005,45.7839973 219.048,46.328 C218.023995,46.8720027 216.824007,47.144 215.448,47.144 C214.119993,47.144 212.952005,46.8720027 211.944,46.328 C210.935995,45.7839973 210.156003,45.016005 209.604,44.024 C209.051997,43.031995 208.776,41.8800066 208.776,40.568 C208.776,39.2399934 209.055997,38.0680051 209.616,37.052 C210.176003,36.0359949 210.963995,35.2520028 211.98,34.7 C212.996005,34.1479972 214.167993,33.872 215.496,33.872 C216.792006,33.872 217.943995,34.1399973 218.952,34.676 C219.960005,35.2120027 220.743997,35.9679951 221.304,36.944 L218.208,38.744 Z M231.768,46.328 C231.287998,46.6000014 230.736003,46.8119992 230.112,46.964 C229.487997,47.1160008 228.856003,47.192 228.216,47.192 C226.935994,47.192 225.900004,46.8240037 225.108,46.088 C224.315996,45.3519963 223.92,44.3360065 223.92,43.04 L223.92,37.472 L222.12,37.472 L222.12,34.64 L223.92,34.64 L223.92,31.04 L228.168,31.04 L228.168,34.64 L231.528,34.64 L231.528,37.472 L228.168,37.472 L228.168,42.368 C228.168,43.2800046 228.543996,43.736 229.296,43.736 C229.760002,43.736 230.311997,43.5920014 230.952,43.304 L231.768,46.328 Z M239.448,33.872 C241.560011,33.872 243.183994,34.4959938 244.32,35.744 C245.456006,36.9920062 246.024,38.7039891 246.024,40.88 C246.024,41.2160017 246.016,41.4719991 246,41.648 L236.976,41.648 C237.184001,42.3840037 237.543997,42.947998 238.056,43.34 C238.568003,43.732002 239.191996,43.928 239.928,43.928 C240.488003,43.928 241.027997,43.8160011 241.548,43.592 C242.068003,43.3679989 242.543998,43.0400022 242.976,42.608 L245.208,44.84 C244.535997,45.5920038 243.724005,46.163998 242.772,46.556 C241.819995,46.948002 240.744006,47.144 239.544,47.144 C238.151993,47.144 236.936005,46.8720027 235.896,46.328 C234.855995,45.7839973 234.060003,45.016005 233.508,44.024 C232.955997,43.031995 232.68,41.8800066 232.68,40.568 C232.68,39.2399934 232.959997,38.0680051 233.52,37.052 C234.080003,36.0359949 234.871995,35.2520028 235.896,34.7 C236.920005,34.1479972 238.103993,33.872 239.448,33.872 Z M241.872,39.368 C241.872,38.6159962 241.652002,38.0120023 241.212,37.556 C240.771998,37.0999977 240.192004,36.872 239.472,36.872 C238.799997,36.872 238.236002,37.0959978 237.78,37.544 C237.323998,37.9920022 237.024001,38.5999962 236.88,39.368 L241.872,39.368 Z M252.48,36.176 C252.928002,35.4239962 253.507996,34.848002 254.22,34.448 C254.932004,34.047998 255.743995,33.848 256.656,33.848 L256.656,37.76 C256.511999,37.7439999 256.296001,37.736 256.008,37.736 C254.999995,37.736 254.184003,37.9719976 253.56,38.444 C252.935997,38.9160024 252.576,39.5599959 252.48,40.376 L252.48,47 L248.208,47 L248.208,34.016 L252.48,34.016 L252.48,36.176 Z M267.192,38.12 C265.511992,37.2399956 264.136005,36.8 263.064,36.8 C262.695998,36.8 262.400001,36.8679993 262.176,37.004 C261.951999,37.1400007 261.84,37.3439986 261.84,37.616 C261.84,37.9040014 262.015998,38.1359991 262.368,38.312 C262.720002,38.4880009 263.279996,38.679999 264.048,38.888 C264.976005,39.1600014 265.747997,39.4279987 266.364,39.692 C266.980003,39.9560013 267.511998,40.3559973 267.96,40.892 C268.408002,41.4280027 268.632,42.1279957 268.632,42.992 C268.632,44.3040066 268.124005,45.3319963 267.108,46.076 C266.091995,46.8200037 264.768008,47.192 263.136,47.192 C262.031994,47.192 260.976005,47.0360016 259.968,46.724 C258.959995,46.4119984 258.064004,45.952003 257.28,45.344 L258.624,42.584 C259.360004,43.0960026 260.131996,43.4919986 260.94,43.772 C261.748004,44.0520014 262.511996,44.192 263.232,44.192 C263.648002,44.192 263.979999,44.1240007 264.228,43.988 C264.476001,43.8519993 264.6,43.6560013 264.6,43.4 C264.6,43.0799984 264.420002,42.8320009 264.06,42.656 C263.699998,42.4799991 263.136004,42.288001 262.368,42.08 C261.455995,41.8079986 260.704003,41.5400013 260.112,41.276 C259.519997,41.0119987 259.004002,40.6160026 258.564,40.088 C258.123998,39.5599974 257.904,38.8720042 257.904,38.024 C257.904,36.7119934 258.399995,35.6840037 259.392,34.94 C260.384005,34.1959963 261.663992,33.824 263.232,33.824 C264.176005,33.824 265.107995,33.9519987 266.028,34.208 C266.948005,34.4640013 267.815996,34.8399975 268.632,35.336 L267.192,38.12 Z" id="View-All-Characters" fill="#FFFFFF"></path>
            </g>
        </g>
    </g>
</svg>