<?xml version="1.0" encoding="UTF-8"?>
<svg width="299px" height="68px" viewBox="0 0 299 68" version="1.1" xmlns="http://www.w3.org/2000/svg" xmlns:xlink="http://www.w3.org/1999/xlink">
    <!-- Generator: Sketch 48.2 (47327) - http://www.bohemiancoding.com/sketch -->
    <title>Button/ViewCharacters/Hover</title>
    <desc>Created with Sketch.</desc>
    <defs></defs>
    <g id="Symbols" stroke="none" stroke-width="1" fill="none" fill-rule="evenodd">
        <g id="Button/ViewCharacters/Hover">
            <g id="Group-8-Copy-2">
                <g id="Group-7" fill="#000000">
                    <path d="M206,13 L212,13 C213.104569,13 214,13.8954305 214,15 L214,66 C214,67.1045695 213.104569,68 212,68 L46,68 C44.8954305,68 44,67.1045695 44,66 L44,15 C44,13.8954305 44.8954305,13 46,13 L52,13 L52,3 C52,1.34314575 53.3431458,3.04359188e-16 55,0 L77,0 C78.6568542,-3.04359188e-16 80,1.34314575 80,3 L80,13 L94,13 L94,3 C94,1.34314575 95.3431458,3.04359188e-16 97,0 L119,0 C120.656854,-3.04359188e-16 122,1.34314575 122,3 L122,13 L136,13 L136,3 C136,1.34314575 137.343146,3.04359188e-16 139,0 L161,0 C162.656854,-3.04359188e-16 164,1.34314575 164,3 L164,13 L178,13 L178,3 C178,1.34314575 179.343146,3.04359188e-16 181,0 L203,0 C204.656854,-3.04359188e-16 206,1.34314575 206,3 L206,13 Z" id="Combined-Shape-Copy"></path>
                    <path d="M292,13 L298,13 C299.104569,13 300,13.8954305 300,15 L300,66 C300,67.1045695 299.104569,68 298,68 L216,68 C214.895431,68 214,67.1045695 214,66 L214,15 C214,13.8954305 214.895431,13 216,13 L222,13 L222,3 C222,1.34314575 223.343146,3.04359188e-16 225,0 L247,0 C248.656854,-3.04359188e-16 250,1.34314575 250,3 L250,13 L264,13 L264,3 C264,1.34314575 265.343146,3.04359188e-16 267,0 L289,0 C290.656854,-3.04359188e-16 292,1.34314575 292,3 L292,13 Z" id="Combined-Shape-Copy-2"></path>
                    <path d="M8,13 L8,3 C8,1.34314575 9.34314575,3.04359188e-16 11,0 L33,0 C34.6568542,-3.04359188e-16 36,1.34314575 36,3 L36,13 L42,13 C43.1045695,13 44,13.8954305 44,15 L44,66 C44,67.1045695 43.1045695,68 42,68 L2,68 C0.8954305,68 1.3527075e-16,67.1045695 0,66 L0,15 C-1.3527075e-16,13.8954305 0.8954305,13 2,13 L8,13 Z" id="Combined-Shape-Copy-3"></path>
                </g>
                <text id="View-All-Characters" font-family="Montserrat-Bold, Montserrat" font-size="24" font-weight="bold" fill="#FFFFFF">
                    <tspan x="30" y="47">View All Characters</tspan>
                </text>
            </g>
        </g>
    </g>
</svg>